<svg xmlns="http://www.w3.org/2000/svg" version="1.1" style="font-family:Lato, &#x27;Helvetica Neue&#x27;, Helvetica, Arial, sans-serif;font-size:18px;background-color:white;text-rendering:optimizeLegibility;-webkit-font-smoothing:antialiased" width="850" height="600"><g class="HeaderView"><g transform="translate(774, 15) scale(0.29)"><svg width="210" height="120" viewBox="0 0 210 120" fill="none" xmlns="http://www.w3.org/2000/svg">
    <g clip-path="url(#clip0)">
        <path d="M0 0H210V107.89H0V0Z" fill="#002147"/>
        <path d="M40.9788 32.248C40.9788 34.6093 40.6048 36.78 39.8568 38.76C39.1088 40.7253 38.0528 42.4193 36.6888 43.842C35.3248 45.2647 33.6821 46.372 31.7608 47.164C29.8541 47.9413 27.7421 48.33 25.4248 48.33C23.1074 48.33 20.9954 47.9413 19.0888 47.164C17.1821 46.372 15.5468 45.2647 14.1828 43.842C12.8188 42.4193 11.7628 40.7253 11.0148 38.76C10.2668 36.78 9.89277 34.6093 9.89277 32.248C9.89277 29.8867 10.2668 27.7233 11.0148 25.758C11.7628 23.778 12.8188 22.0767 14.1828 20.654C15.5468 19.2167 17.1821 18.102 19.0888 17.31C20.9954 16.518 23.1074 16.122 25.4248 16.122C27.7421 16.122 29.8541 16.518 31.7608 17.31C33.6821 18.102 35.3248 19.2167 36.6888 20.654C38.0528 22.0767 39.1088 23.778 39.8568 25.758C40.6048 27.7233 40.9788 29.8867 40.9788 32.248ZM36.6008 32.248C36.6008 30.312 36.3368 28.574 35.8088 27.034C35.2808 25.494 34.5328 24.196 33.5648 23.14C32.5968 22.0693 31.4234 21.248 30.0448 20.676C28.6661 20.104 27.1261 19.818 25.4248 19.818C23.7381 19.818 22.2054 20.104 20.8268 20.676C19.4481 21.248 18.2674 22.0693 17.2848 23.14C16.3168 24.196 15.5688 25.494 15.0408 27.034C14.5128 28.574 14.2488 30.312 14.2488 32.248C14.2488 34.184 14.5128 35.922 15.0408 37.462C15.5688 38.9873 16.3168 40.2853 17.2848 41.356C18.2674 42.412 19.4481 43.226 20.8268 43.798C22.2054 44.3553 23.7381 44.634 25.4248 44.634C27.1261 44.634 28.6661 44.3553 30.0448 43.798C31.4234 43.226 32.5968 42.412 33.5648 41.356C34.5328 40.2853 35.2808 38.9873 35.8088 37.462C36.3368 35.922 36.6008 34.184 36.6008 32.248ZM62.8234 25.714V48H60.4914C59.9341 48 59.5821 47.7287 59.4354 47.186L59.1274 44.788C58.1594 45.8587 57.0741 46.724 55.8714 47.384C54.6687 48.0293 53.2901 48.352 51.7354 48.352C50.5181 48.352 49.4401 48.154 48.5014 47.758C47.5774 47.3473 46.8001 46.7753 46.1694 46.042C45.5387 45.3087 45.0621 44.4213 44.7394 43.38C44.4314 42.3387 44.2774 41.1873 44.2774 39.926V25.714H48.1934V39.926C48.1934 41.6127 48.5747 42.918 49.3374 43.842C50.1147 44.766 51.2954 45.228 52.8794 45.228C54.0381 45.228 55.1161 44.9567 56.1134 44.414C57.1254 43.8567 58.0567 43.094 58.9074 42.126V25.714H62.8234ZM71.4305 30.18C72.1346 28.6547 72.9999 27.4667 74.0266 26.616C75.0532 25.7507 76.3072 25.318 77.7886 25.318C78.2579 25.318 78.7052 25.3693 79.1306 25.472C79.5706 25.5747 79.9592 25.736 80.2966 25.956L80.0106 28.882C79.9226 29.2487 79.7026 29.432 79.3506 29.432C79.1452 29.432 78.8446 29.388 78.4486 29.3C78.0526 29.212 77.6052 29.168 77.1066 29.168C76.4026 29.168 75.7719 29.2707 75.2146 29.476C74.6719 29.6813 74.1806 29.9893 73.7406 30.4C73.3152 30.796 72.9266 31.2947 72.5746 31.896C72.2372 32.4827 71.9292 33.1573 71.6506 33.92V48H67.7125V25.714H69.9566C70.3819 25.714 70.6752 25.7947 70.8366 25.956C70.9979 26.1173 71.1079 26.396 71.1666 26.792L71.4305 30.18ZM132.589 16.474L122.755 48H118.927L110.941 23.954C110.867 23.7193 110.794 23.47 110.721 23.206C110.662 22.942 110.596 22.6633 110.523 22.37C110.449 22.6633 110.376 22.942 110.303 23.206C110.23 23.47 110.156 23.7193 110.083 23.954L102.053 48H98.2248L88.3908 16.474H91.9328C92.3142 16.474 92.6295 16.5693 92.8788 16.76C93.1428 16.9507 93.3115 17.1927 93.3848 17.486L99.8968 39.398C99.9995 39.794 100.095 40.2193 100.183 40.674C100.285 41.1287 100.381 41.6127 100.469 42.126C100.571 41.6127 100.674 41.1287 100.777 40.674C100.894 40.2047 101.019 39.7793 101.151 39.398L108.565 17.486C108.653 17.2367 108.821 17.0093 109.071 16.804C109.335 16.584 109.65 16.474 110.017 16.474H111.249C111.63 16.474 111.938 16.5693 112.173 16.76C112.407 16.9507 112.583 17.1927 112.701 17.486L120.093 39.398C120.225 39.7793 120.342 40.19 120.445 40.63C120.562 41.07 120.672 41.532 120.775 42.016C120.848 41.532 120.929 41.07 121.017 40.63C121.105 40.19 121.2 39.7793 121.303 39.398L127.837 17.486C127.91 17.222 128.072 16.9873 128.321 16.782C128.585 16.5767 128.9 16.474 129.267 16.474H132.589ZM141.94 25.362C143.568 25.362 145.034 25.6333 146.34 26.176C147.645 26.7187 148.76 27.4887 149.684 28.486C150.608 29.4833 151.312 30.6933 151.796 32.116C152.294 33.524 152.544 35.1007 152.544 36.846C152.544 38.606 152.294 40.19 151.796 41.598C151.312 43.006 150.608 44.2087 149.684 45.206C148.76 46.2033 147.645 46.9733 146.34 47.516C145.034 48.044 143.568 48.308 141.94 48.308C140.297 48.308 138.816 48.044 137.496 47.516C136.19 46.9733 135.076 46.2033 134.152 45.206C133.228 44.2087 132.516 43.006 132.018 41.598C131.534 40.19 131.292 38.606 131.292 36.846C131.292 35.1007 131.534 33.524 132.018 32.116C132.516 30.6933 133.228 29.4833 134.152 28.486C135.076 27.4887 136.19 26.7187 137.496 26.176C138.816 25.6333 140.297 25.362 141.94 25.362ZM141.94 45.25C144.14 45.25 145.782 44.5167 146.868 43.05C147.953 41.5687 148.496 39.508 148.496 36.868C148.496 34.2133 147.953 32.1453 146.868 30.664C145.782 29.1827 144.14 28.442 141.94 28.442C140.825 28.442 139.85 28.6327 139.014 29.014C138.192 29.3953 137.503 29.9453 136.946 30.664C136.403 31.3827 135.992 32.27 135.714 33.326C135.45 34.3673 135.318 35.548 135.318 36.868C135.318 39.508 135.86 41.5687 136.946 43.05C138.046 44.5167 139.71 45.25 141.94 45.25ZM159.908 30.18C160.612 28.6547 161.478 27.4667 162.504 26.616C163.531 25.7507 164.785 25.318 166.266 25.318C166.736 25.318 167.183 25.3693 167.608 25.472C168.048 25.5747 168.437 25.736 168.774 25.956L168.488 28.882C168.4 29.2487 168.18 29.432 167.828 29.432C167.623 29.432 167.322 29.388 166.926 29.3C166.53 29.212 166.083 29.168 165.584 29.168C164.88 29.168 164.25 29.2707 163.692 29.476C163.15 29.6813 162.658 29.9893 162.218 30.4C161.793 30.796 161.404 31.2947 161.052 31.896C160.715 32.4827 160.407 33.1573 160.128 33.92V48H156.19V25.714H158.434C158.86 25.714 159.153 25.7947 159.314 25.956C159.476 26.1173 159.586 26.396 159.644 26.792L159.908 30.18ZM174.946 15.594V48H171.03V15.594H174.946ZM194.496 31.016C193.763 30.0333 192.971 29.3513 192.12 28.97C191.269 28.574 190.316 28.376 189.26 28.376C187.192 28.376 185.601 29.1167 184.486 30.598C183.371 32.0793 182.814 34.1913 182.814 36.934C182.814 38.386 182.939 39.6327 183.188 40.674C183.437 41.7007 183.804 42.5513 184.288 43.226C184.772 43.886 185.366 44.37 186.07 44.678C186.774 44.986 187.573 45.14 188.468 45.14C189.759 45.14 190.881 44.8467 191.834 44.26C192.802 43.6733 193.689 42.8447 194.496 41.774V31.016ZM198.412 15.594V48H196.08C195.523 48 195.171 47.7287 195.024 47.186L194.672 44.48C193.719 45.624 192.633 46.548 191.416 47.252C190.199 47.956 188.791 48.308 187.192 48.308C185.916 48.308 184.757 48.066 183.716 47.582C182.675 47.0833 181.787 46.3573 181.054 45.404C180.321 44.4507 179.756 43.2627 179.36 41.84C178.964 40.4173 178.766 38.782 178.766 36.934C178.766 35.2913 178.986 33.766 179.426 32.358C179.866 30.9353 180.497 29.7033 181.318 28.662C182.139 27.6207 183.144 26.8067 184.332 26.22C185.535 25.6187 186.884 25.318 188.38 25.318C189.744 25.318 190.91 25.5527 191.878 26.022C192.861 26.4767 193.733 27.1147 194.496 27.936V15.594H198.412ZM46.6139 70.714V93H42.6979V70.714H46.6139ZM47.4499 63.718C47.4499 64.0993 47.3692 64.4587 47.2079 64.796C47.0612 65.1187 46.8559 65.412 46.5919 65.676C46.3425 65.9253 46.0419 66.1233 45.6899 66.27C45.3525 66.4167 44.9932 66.49 44.6119 66.49C44.2305 66.49 43.8712 66.4167 43.5339 66.27C43.2112 66.1233 42.9252 65.9253 42.6759 65.676C42.4265 65.412 42.2285 65.1187 42.0819 64.796C41.9352 64.4587 41.8619 64.0993 41.8619 63.718C41.8619 63.3367 41.9352 62.9773 42.0819 62.64C42.2285 62.288 42.4265 61.9873 42.6759 61.738C42.9252 61.474 43.2112 61.2687 43.5339 61.122C43.8712 60.9753 44.2305 60.902 44.6119 60.902C44.9932 60.902 45.3525 60.9753 45.6899 61.122C46.0419 61.2687 46.3425 61.474 46.5919 61.738C46.8559 61.9873 47.0612 62.288 47.2079 62.64C47.3692 62.9773 47.4499 63.3367 47.4499 63.718ZM55.4242 73.948C55.9082 73.4053 56.4215 72.914 56.9642 72.474C57.5068 72.034 58.0788 71.66 58.6802 71.352C59.2962 71.0293 59.9415 70.7873 60.6162 70.626C61.3055 70.45 62.0462 70.362 62.8382 70.362C64.0555 70.362 65.1262 70.5673 66.0502 70.978C66.9888 71.374 67.7662 71.946 68.3822 72.694C69.0128 73.4273 69.4895 74.3147 69.8122 75.356C70.1348 76.3973 70.2962 77.5487 70.2962 78.81V93H66.3582V78.81C66.3582 77.1233 65.9695 75.818 65.1922 74.894C64.4295 73.9553 63.2635 73.486 61.6942 73.486C60.5355 73.486 59.4502 73.7647 58.4382 74.322C57.4408 74.8793 56.5168 75.6347 55.6662 76.588V93H51.7282V70.714H54.0822C54.6395 70.714 54.9842 70.9853 55.1162 71.528L55.4242 73.948ZM113.129 77.248C113.129 79.6093 112.755 81.758 112.007 83.694C111.259 85.63 110.203 87.2873 108.839 88.666C107.475 90.0447 105.832 91.1153 103.911 91.878C102.004 92.626 99.8925 93 97.5751 93H85.8051V61.474H97.5751C99.8925 61.474 102.004 61.8553 103.911 62.618C105.832 63.366 107.475 64.4367 108.839 65.83C110.203 67.2087 111.259 68.866 112.007 70.802C112.755 72.738 113.129 74.8867 113.129 77.248ZM108.751 77.248C108.751 75.312 108.487 73.5813 107.959 72.056C107.431 70.5307 106.683 69.24 105.715 68.184C104.747 67.128 103.574 66.3213 102.195 65.764C100.816 65.2067 99.2765 64.928 97.5751 64.928H90.0731V89.546H97.5751C99.2765 89.546 100.816 89.2673 102.195 88.71C103.574 88.1527 104.747 87.3533 105.715 86.312C106.683 85.256 107.431 83.9653 107.959 82.44C108.487 80.9147 108.751 79.184 108.751 77.248ZM128.553 82.968C126.749 83.0267 125.209 83.1733 123.933 83.408C122.672 83.628 121.638 83.9213 120.831 84.288C120.039 84.6547 119.46 85.0873 119.093 85.586C118.741 86.0847 118.565 86.642 118.565 87.258C118.565 87.8447 118.661 88.3507 118.851 88.776C119.042 89.2013 119.299 89.5533 119.621 89.832C119.959 90.096 120.347 90.294 120.787 90.426C121.242 90.5433 121.726 90.602 122.239 90.602C122.929 90.602 123.559 90.536 124.131 90.404C124.703 90.2573 125.239 90.052 125.737 89.788C126.251 89.524 126.735 89.2087 127.189 88.842C127.659 88.4753 128.113 88.0573 128.553 87.588V82.968ZM115.903 73.86C117.135 72.672 118.463 71.7847 119.885 71.198C121.308 70.6113 122.885 70.318 124.615 70.318C125.862 70.318 126.969 70.5233 127.937 70.934C128.905 71.3447 129.719 71.9167 130.379 72.65C131.039 73.3833 131.538 74.2707 131.875 75.312C132.213 76.3533 132.381 77.4973 132.381 78.744V93H130.643C130.262 93 129.969 92.9413 129.763 92.824C129.558 92.692 129.397 92.4427 129.279 92.076L128.839 89.964C128.253 90.5067 127.681 90.9907 127.123 91.416C126.566 91.8267 125.979 92.1787 125.363 92.472C124.747 92.7507 124.087 92.9633 123.383 93.11C122.694 93.2713 121.924 93.352 121.073 93.352C120.208 93.352 119.394 93.2347 118.631 93C117.869 92.7507 117.201 92.384 116.629 91.9C116.072 91.416 115.625 90.8073 115.287 90.074C114.965 89.326 114.803 88.446 114.803 87.434C114.803 86.554 115.045 85.7107 115.529 84.904C116.013 84.0827 116.798 83.3567 117.883 82.726C118.969 82.0953 120.384 81.582 122.129 81.186C123.875 80.7753 126.016 80.5407 128.553 80.482V78.744C128.553 77.0133 128.179 75.708 127.431 74.828C126.683 73.9333 125.591 73.486 124.153 73.486C123.185 73.486 122.371 73.6107 121.711 73.86C121.066 74.0947 120.501 74.366 120.017 74.674C119.548 74.9673 119.137 75.2387 118.785 75.488C118.448 75.7227 118.111 75.84 117.773 75.84C117.509 75.84 117.282 75.774 117.091 75.642C116.901 75.4953 116.739 75.3193 116.607 75.114L115.903 73.86ZM143.568 93.352C141.808 93.352 140.451 92.8607 139.498 91.878C138.559 90.8953 138.09 89.48 138.09 87.632V73.992H135.406C135.171 73.992 134.973 73.926 134.812 73.794C134.65 73.6473 134.57 73.4273 134.57 73.134V71.572L138.222 71.11L139.124 64.224C139.168 64.004 139.263 63.828 139.41 63.696C139.571 63.5493 139.776 63.476 140.026 63.476H142.006V71.154H148.452V73.992H142.006V87.368C142.006 88.3067 142.233 89.0033 142.688 89.458C143.142 89.9127 143.729 90.14 144.448 90.14C144.858 90.14 145.21 90.0887 145.504 89.986C145.812 89.8687 146.076 89.744 146.296 89.612C146.516 89.48 146.699 89.3627 146.846 89.26C147.007 89.1427 147.146 89.084 147.264 89.084C147.469 89.084 147.652 89.2087 147.814 89.458L148.958 91.328C148.283 91.9587 147.469 92.4573 146.516 92.824C145.562 93.176 144.58 93.352 143.568 93.352ZM163.253 82.968C161.449 83.0267 159.909 83.1733 158.633 83.408C157.372 83.628 156.338 83.9213 155.531 84.288C154.739 84.6547 154.16 85.0873 153.793 85.586C153.441 86.0847 153.265 86.642 153.265 87.258C153.265 87.8447 153.36 88.3507 153.551 88.776C153.742 89.2013 153.998 89.5533 154.321 89.832C154.658 90.096 155.047 90.294 155.487 90.426C155.942 90.5433 156.426 90.602 156.939 90.602C157.628 90.602 158.259 90.536 158.831 90.404C159.403 90.2573 159.938 90.052 160.437 89.788C160.95 89.524 161.434 89.2087 161.889 88.842C162.358 88.4753 162.813 88.0573 163.253 87.588V82.968ZM150.603 73.86C151.835 72.672 153.162 71.7847 154.585 71.198C156.008 70.6113 157.584 70.318 159.315 70.318C160.562 70.318 161.669 70.5233 162.637 70.934C163.605 71.3447 164.419 71.9167 165.079 72.65C165.739 73.3833 166.238 74.2707 166.575 75.312C166.912 76.3533 167.081 77.4973 167.081 78.744V93H165.343C164.962 93 164.668 92.9413 164.463 92.824C164.258 92.692 164.096 92.4427 163.979 92.076L163.539 89.964C162.952 90.5067 162.38 90.9907 161.823 91.416C161.266 91.8267 160.679 92.1787 160.063 92.472C159.447 92.7507 158.787 92.9633 158.083 93.11C157.394 93.2713 156.624 93.352 155.773 93.352C154.908 93.352 154.094 93.2347 153.331 93C152.568 92.7507 151.901 92.384 151.329 91.9C150.772 91.416 150.324 90.8073 149.987 90.074C149.664 89.326 149.503 88.446 149.503 87.434C149.503 86.554 149.745 85.7107 150.229 84.904C150.713 84.0827 151.498 83.3567 152.583 82.726C153.668 82.0953 155.084 81.582 156.829 81.186C158.574 80.7753 160.716 80.5407 163.253 80.482V78.744C163.253 77.0133 162.879 75.708 162.131 74.828C161.383 73.9333 160.29 73.486 158.853 73.486C157.885 73.486 157.071 73.6107 156.411 73.86C155.766 74.0947 155.201 74.366 154.717 74.674C154.248 74.9673 153.837 75.2387 153.485 75.488C153.148 75.7227 152.81 75.84 152.473 75.84C152.209 75.84 151.982 75.774 151.791 75.642C151.6 75.4953 151.439 75.3193 151.307 75.114L150.603 73.86Z" fill="white"/>
        <rect y="106.789" width="210" height="13.211" fill="#D42B21"/>
    </g>
    <defs>
        <clipPath id="clip0">
            <rect width="210" height="120" fill="white"/>
        </clipPath>
    </defs>
</svg></g><a href="https://ourworldindata.org/grapher/maddison-data-gdp-per-capita-in-2011us-single-benchmark" style="font-family:&quot;Playfair Display&quot;, Georgia, &quot;Times New Roman&quot;, serif" target="_blank"><text font-size="25.20" x="15.0" y="35.2" fill="#555"><tspan x="15" y="35.160000000000004">GDP per capita</tspan></text></a><text font-size="14.40" x="15.0" y="55.7" fill="#666"><tspan x="15" y="55.72">GDP per capita adjusted for price changes over time (inflation) and price differences between countries – it is</tspan><tspan x="15" y="71.56">measured in international-$ in 2011 prices.</tspan></text></g><g class="LineChart"><defs><clipPath id="boundsClip-4"><rect x="68.968" y="0" width="830" height="840.8"></rect></clipPath></defs><g class="AxisBoxView"><g class="HorizontalAxis"><text x="79" y="514.5" fill="#666" text-anchor="middle" font-size="16.2">1</text><text x="233.7" y="514.5" fill="#666" text-anchor="middle" font-size="16.2">500</text><text x="388.7" y="514.5" fill="#666" text-anchor="middle" font-size="16.2">1000</text><text x="543.7" y="514.5" fill="#666" text-anchor="middle" font-size="16.2">1500</text><text x="703.6" y="514.5" fill="#666" text-anchor="middle" font-size="16.2">2016</text></g><g class="VerticalAxis"><text x="73.97" y="493.3" fill="#666" dominant-baseline="middle" text-anchor="end" font-size="16.2">$0</text><text x="73.97" y="418" fill="#666" dominant-baseline="middle" text-anchor="end" font-size="16.2">$10,000</text><text x="73.97" y="342.7" fill="#666" dominant-baseline="middle" text-anchor="end" font-size="16.2">$20,000</text><text x="73.97" y="267.4" fill="#666" dominant-baseline="middle" text-anchor="end" font-size="16.2">$30,000</text><text x="73.97" y="192.1" fill="#666" dominant-baseline="middle" text-anchor="end" font-size="16.2">$40,000</text><text x="73.97" y="116.8" fill="#666" dominant-baseline="middle" text-anchor="end" font-size="16.2">$50,000</text></g><g class="AxisGridLines"><line x1="78.97" y1="493.3" x2="703.61" y2="493.3" stroke="#ccc"></line><line x1="78.97" y1="418" x2="703.61" y2="418" stroke="#ddd" stroke-dasharray="3,2"></line><line x1="78.97" y1="342.7" x2="703.61" y2="342.7" stroke="#ddd" stroke-dasharray="3,2"></line><line x1="78.97" y1="267.4" x2="703.61" y2="267.4" stroke="#ddd" stroke-dasharray="3,2"></line><line x1="78.97" y1="192.1" x2="703.61" y2="192.1" stroke="#ddd" stroke-dasharray="3,2"></line><line x1="78.97" y1="116.8" x2="703.61" y2="116.8" stroke="#ddd" stroke-dasharray="3,2"></line></g></g><g clip-path="url(#boundsClip-4)"><g class="HeightedLegend" style="cursor:pointer"><g class="legendMark"><g class="indicator"><path d="M707.61,94.1 H721.11 V100.85 H734.61" stroke="#999" stroke-width="0.5" fill="none"></path></g><rect x="703.61" y="94.1" width="116.405" height="13.5" fill="#fff" opacity="0"></rect><text font-size="13.50" x="738.6" y="104.9" fill="#e6332e"><tspan x="738.61" y="104.89999999999999">United States</tspan></text></g><g class="legendMark"><g class="indicator"><path d="M707.61,181.2 H721.11 V181.2 H734.61" stroke="#999" stroke-width="0.5" fill="none"></path></g><rect x="703.61" y="174.45" width="77.12" height="13.5" fill="#fff" opacity="0"></rect><text font-size="13.50" x="738.6" y="185.3" fill="#2a939b"><tspan x="738.61" y="185.25">Austria</tspan></text></g><g class="legendMark"><g class="indicator"><path d="M707.61,212.2 H725.61 V200.3 H734.61" stroke="#999" stroke-width="0.5" fill="none"></path></g><rect x="703.61" y="193.55" width="131.39" height="13.5" fill="#fff" opacity="0"></rect><text font-size="13.50" x="738.6" y="204.4" fill="#a652ba"><tspan x="738.61" y="204.35000000000002">United Kingdom</tspan></text></g><g class="legendMark"><g class="indicator"><path d="M707.61,213.8 H725.61 V215.8 H734.61" stroke="#999" stroke-width="0.5" fill="none"></path></g><rect x="703.61" y="209.05" width="77.12" height="13.5" fill="#fff" opacity="0"></rect><text font-size="13.50" x="738.6" y="219.9" fill="#f6a324"><tspan x="738.61" y="219.85000000000002">France</tspan></text></g><g class="legendMark"><g class="indicator"><path d="M707.61,221.4 H716.61 V231.3 H734.61" stroke="#999" stroke-width="0.5" fill="none"></path></g><rect x="703.61" y="224.55" width="110.465" height="13.5" fill="#fff" opacity="0"></rect><text font-size="13.50" x="738.6" y="235.4" fill="#34983f"><tspan x="738.61" y="235.35000000000002">South Korea</tspan></text></g><g class="legendMark"><g class="indicator"><path d="M707.61,351.2 H721.11 V351.2 H734.61" stroke="#999" stroke-width="0.5" fill="none"></path></g><rect x="703.61" y="344.45" width="93.05000000000001" height="13.5" fill="#fff" opacity="0"></rect><text font-size="13.50" x="738.6" y="355.3" fill="#ca2628"><tspan x="738.61" y="355.25">Argentina</tspan></text></g><g class="legendMark"><g class="indicator"><path d="M707.61,411.1 H721.11 V411.1 H734.61" stroke="#999" stroke-width="0.5" fill="none"></path></g><rect x="703.61" y="404.35" width="93.86000000000001" height="13.5" fill="#fff" opacity="0"></rect><text font-size="13.50" x="738.6" y="415.2" fill="#3360a9"><tspan x="738.61" y="415.15000000000003">Indonesia</tspan></text></g></g><g class="Lines"><rect x="79" y="94" width="625" height="399" fill="rgba(255,255,255,0)" opacity="0"></rect><g class="key-Austria_0"><path stroke="#2a939b" stroke-linecap="round" d="M643 477L646 475L649 474L652 472L655 470L658 469L659 468L659 468L659 468L660 467L660 468L660 467L661 467L661 466L661 466L662 466L662 465L662 465L662 465L663 464L663 464L663 464L664 462L664 462L664 463L665 461L665 461L665 460L666 460L666 459L666 458L666 458L667 458L667 456L667 456L668 456L668 456L668 455L669 455L669 455L669 453L670 452L670 450L670 450L670 451L671 450L671 449L671 448L672 448L672 456L672 459L673 459L673 460L673 460L674 464L674 462L674 459L675 456L675 456L675 452L675 449L676 449L676 448L676 446L677 445L677 447L677 450L678 455L678 456L678 456L679 455L679 454L679 452L679 447L680 440L680 442L680 438L681 441L681 440L681 439L682 471L682 468L682 465L683 457L683 450L683 445L684 442L684 442L684 439L684 434L685 427L685 423L685 419L686 416L686 414L686 408L687 404L687 403L687 400L688 395L688 392L688 387L688 385L689 381L689 374L689 366L690 360L690 353L690 347L691 341L691 341L691 334L692 327L692 327L692 318L693 314L693 314L693 311L693 305L694 305L694 301L694 296L695 293L695 288L695 280L696 273L696 267L696 265L697 266L697 261L697 256L697 250L698 245L698 237L698 228L699 220L699 217L699 214L700 213L700 207L700 203L701 195L701 185L701 181L701 194L702 189L702 181L702 180L703 182L703 182L703 182L704 181" fill="none" stroke-width="1.5"></path></g><g class="key-Indonesia_0"><path stroke="#3360a9" stroke-linecap="round" d="M641 487L642 486L642 486L642 486L643 486L643 486L643 486L644 486L644 486L644 487L644 487L645 486L645 486L645 486L646 486L646 487L646 487L647 487L647 486L647 486L648 486L648 487L648 486L648 486L649 486L649 486L649 486L650 486L650 486L650 486L651 487L651 487L651 487L652 487L652 487L652 487L653 487L653 487L653 487L653 487L654 487L654 487L654 487L655 487L655 487L655 487L656 487L656 487L656 487L657 487L657 487L657 487L657 486L658 487L658 487L658 487L659 487L659 486L659 487L660 487L660 486L660 486L661 486L661 486L661 486L662 485L662 484L662 485L662 485L663 484L663 484L663 484L664 484L664 484L664 484L665 485L665 485L665 484L666 484L666 484L666 484L666 484L667 484L667 484L667 484L668 484L668 484L668 484L669 484L669 484L669 484L670 484L670 484L670 484L670 483L671 483L671 482L671 482L672 482L672 482L672 482L673 482L673 482L673 482L674 481L674 482L674 482L675 482L675 481L675 481L675 481L676 480L676 480L676 479L677 479L677 479L677 480L678 481L678 481L678 481L679 481L679 481L679 479L679 480L680 480L680 479L680 478L683 484L683 483L684 482L684 482L684 481L684 481L685 481L685 481L685 480L686 481L686 480L686 480L687 479L687 480L687 480L688 480L688 480L688 481L688 481L689 480L689 479L689 478L690 477L690 476L690 474L691 473L691 474L691 472L692 471L692 471L692 470L693 469L693 467L693 469L693 469L694 467L694 467L694 466L695 465L695 464L695 462L696 460L696 458L696 456L697 454L697 452L697 449L697 446L698 445L698 452L698 452L699 451L699 450L699 448L700 447L700 445L700 443L701 441L701 438L701 435L701 433L702 430L702 427L702 423L703 420L703 417L703 414L704 411" fill="none" stroke-width="1.5"></path></g><g class="key-United-States_0"><path stroke="#e6332e" stroke-linecap="round" d="M590 487L612 483L629 479L637 478L637 478L637 478L638 478L638 478L638 478L639 478L639 477L639 479L639 478L640 477L640 477L640 477L641 477L641 477L641 477L642 478L642 478L642 478L643 478L643 478L643 477L644 477L644 477L644 477L644 476L645 476L645 476L645 476L646 477L646 476L646 474L647 474L647 473L647 474L648 473L648 473L648 474L648 474L649 473L649 474L649 474L650 474L650 474L650 473L651 473L651 473L651 472L652 472L652 472L652 472L653 471L653 470L653 469L653 468L654 469L654 468L654 469L655 469L655 468L655 468L656 468L656 467L656 466L657 465L657 466L657 466L657 466L658 465L658 464L658 465L659 465L659 464L659 463L660 464L660 463L660 464L661 463L661 463L661 460L662 457L662 456L662 455L662 455L663 455L663 456L663 455L664 455L664 456L664 454L665 454L665 453L665 450L666 453L666 455L666 451L666 453L667 450L667 450L667 447L668 446L668 442L668 442L669 441L669 443L669 440L670 435L670 435L670 441L670 436L671 436L671 435L671 434L672 432L672 438L672 437L673 431L673 433L673 428L674 428L674 429L674 432L675 430L675 422L675 422L675 421L676 417L676 418L676 418L677 414L677 422L677 427L678 437L678 439L678 434L679 427L679 420L679 415L679 420L680 415L680 408L680 397L681 387L681 377L681 370L682 373L682 384L682 388L683 384L683 387L683 379L684 372L684 370L684 366L684 369L685 363L685 362L685 362L686 366L686 359L686 357L687 356L687 350L687 346L688 340L688 332L688 324L688 321L689 315L689 311L689 313L690 310L690 302L690 293L691 295L691 298L691 290L692 283L692 273L692 268L693 270L693 267L693 273L693 266L694 252L694 245L694 238L695 232L695 223L695 217L696 215L696 219L696 213L697 209L697 201L697 197L697 189L698 179L698 169L698 158L699 148L699 148L699 145L700 138L700 128L700 119L701 113L701 110L701 115L701 129L702 122L702 119L702 114L703 110L703 104L703 97L704 94" fill="none" stroke-width="1.5"></path></g><g class="key-United-Kingdom_0"><path stroke="#a652ba" stroke-linecap="round" d="M389 485L606 476L606 474L606 475L607 476L607 473L607 474L608 477L608 475L608 474L608 477L609 478L609 477L609 477L610 477L610 476L610 476L611 476L611 475L611 474L612 475L612 473L612 474L613 474L613 474L613 475L613 474L614 475L614 475L614 474L615 475L615 475L615 475L616 474L616 473L616 474L617 474L617 473L617 474L617 474L618 474L618 475L618 474L619 474L619 474L619 474L620 474L620 474L620 473L621 473L621 474L621 473L622 474L622 473L622 473L622 474L623 473L623 474L623 473L624 473L624 472L624 472L625 471L625 472L625 472L626 472L626 472L626 472L626 472L627 472L627 471L627 472L628 471L628 472L628 472L629 472L629 472L629 471L630 471L630 471L630 472L631 471L631 470L631 471L631 471L632 471L632 471L632 471L633 472L633 472L633 472L634 471L634 471L634 470L635 471L635 472L635 470L635 469L636 470L636 470L636 470L637 469L637 469L637 469L638 469L638 470L638 469L639 469L639 468L639 469L639 469L640 468L640 468L640 470L641 469L641 470L641 468L642 469L642 469L642 470L643 470L643 469L643 469L644 469L644 469L644 468L644 467L645 469L645 468L645 468L646 468L646 467L646 467L647 467L647 467L647 466L648 465L648 464L648 465L648 464L649 465L649 464L649 465L650 465L650 464L650 462L651 461L651 461L651 462L652 461L652 461L652 461L653 460L653 459L653 458L653 457L654 458L654 456L654 456L655 457L655 456L655 456L656 456L656 458L656 455L657 455L657 454L657 453L657 453L658 452L658 452L658 450L659 451L659 451L659 450L660 450L660 449L660 450L661 450L661 450L661 451L662 449L662 448L662 447L662 447L663 447L663 448L663 448L664 446L664 445L664 443L665 443L665 443L665 445L666 445L666 443L666 442L666 440L667 440L667 438L667 436L668 437L668 438L668 437L669 438L669 438L669 437L670 436L670 435L670 438L670 438L671 436L671 435L671 435L672 433L672 433L672 430L673 429L673 429L673 430L674 437L674 442L674 443L675 439L675 437L675 435L675 433L676 435L676 431L676 430L677 429L677 429L677 433L678 433L678 431L678 427L679 425L679 422L679 420L679 420L680 420L680 413L680 405L681 403L681 402L681 406L682 410L682 414L682 416L683 414L683 411L683 412L684 410L684 410L684 407L684 404L685 401L685 400L685 399L686 400L686 396L686 392L687 389L687 389L687 386L688 381L688 379L688 377L688 375L689 371L689 369L689 367L690 365L690 360L690 352L691 354L691 354L691 351L692 348L692 342L692 338L693 341L693 343L693 341L693 336L694 332L694 327L694 320L695 312L695 304L695 300L696 300L696 303L696 303L697 298L697 291L697 287L697 282L698 276L698 270L698 263L699 255L699 250L699 245L700 238L700 233L700 227L701 222L701 217L701 221L701 235L702 232L702 230L702 228L703 225L703 219L703 215L704 212" fill="none" stroke-width="1.5"></path></g><g class="key-France_0"><path stroke="#f6a324" stroke-linecap="round" d="M79 485L476 483L476 483L476 484L476 484L477 484L477 484L477 484L478 483L478 483L478 483L479 483L479 483L479 483L480 483L480 483L480 484L480 484L481 483L481 483L481 483L482 482L482 482L482 482L483 481L483 481L483 481L484 480L484 480L484 480L484 479L485 479L485 479L485 479L486 480L486 480L486 480L487 480L487 480L487 480L488 480L488 481L488 481L489 481L489 481L489 480L489 480L490 480L490 480L490 480L491 481L491 481L491 481L492 481L492 481L492 480L493 480L493 480L493 480L493 480L494 480L494 480L494 480L495 480L495 480L495 480L496 480L496 480L496 479L497 479L497 479L497 479L498 479L498 479L498 479L498 478L499 478L499 478L499 479L500 479L500 479L500 479L501 479L501 479L501 479L502 479L502 479L502 479L502 479L503 479L503 479L503 478L504 479L504 479L504 479L505 479L505 479L505 479L506 479L506 479L506 479L507 479L507 479L507 480L507 480L508 480L508 480L508 480L509 479L509 479L509 479L510 479L510 479L510 479L511 479L511 479L511 479L511 479L512 479L512 479L512 479L513 479L513 480L513 480L514 480L514 480L514 480L515 480L515 480L515 480L515 480L516 480L516 480L516 480L517 480L517 480L517 480L518 480L518 480L518 480L519 480L519 480L519 480L520 480L520 480L520 480L520 480L521 480L521 480L521 480L522 480L522 480L522 480L523 480L523 480L523 480L524 480L524 480L524 479L524 479L525 479L525 479L525 479L526 479L526 479L526 479L527 479L527 479L527 479L528 479L528 479L528 479L529 479L529 479L529 479L529 479L530 479L530 480L530 480L531 480L531 480L531 480L532 480L532 480L532 480L533 480L533 480L533 480L533 480L534 480L534 480L534 480L535 480L535 480L535 480L536 480L536 480L536 480L537 480L537 480L537 480L538 480L538 480L538 480L538 480L539 480L539 480L539 480L540 480L540 480L540 480L541 480L541 480L541 480L542 480L542 480L542 480L542 480L543 480L543 480L543 480L544 480L544 480L544 480L545 480L545 480L545 480L546 480L546 480L546 480L546 480L547 480L547 480L547 480L548 481L548 481L548 481L549 481L549 481L549 481L550 481L550 481L550 481L551 481L551 481L551 481L551 481L552 481L552 481L552 481L553 481L553 481L553 481L554 481L554 481L554 481L555 481L555 481L555 481L555 481L556 481L556 481L556 481L557 481L557 481L557 481L558 481L558 481L558 481L559 481L559 482L559 482L560 482L560 482L560 482L560 482L561 482L561 482L561 482L562 482L562 482L562 482L563 482L563 482L563 482L564 482L564 482L564 482L564 482L565 482L565 482L565 482L566 482L566 482L566 482L567 481L567 481L567 481L568 481L568 481L568 482L569 482L569 482L569 481L569 482L570 481L570 481L570 481L571 481L571 481L571 481L572 481L572 481L572 481L573 481L573 481L573 481L573 481L574 481L574 481L574 481L575 481L575 481L575 481L576 481L576 481L576 481L577 481L577 481L577 481L577 481L578 481L578 481L578 481L579 481L579 481L579 481L580 481L580 481L580 481L581 481L581 481L581 481L582 481L582 481L582 481L582 481L583 481L583 481L583 481L584 481L584 481L584 481L585 481L585 480L585 480L586 480L586 480L586 480L586 480L587 480L587 480L587 480L588 480L588 480L588 480L589 480L589 480L589 480L590 480L590 480L590 480L591 480L591 480L591 480L591 480L592 480L592 480L592 480L593 480L593 480L593 480L594 480L594 480L594 480L595 480L595 480L595 480L595 480L596 480L596 480L596 480L597 480L597 480L597 480L598 480L598 480L598 480L599 480L599 480L599 480L600 480L600 480L600 480L600 480L601 480L601 480L601 480L602 480L602 480L602 480L603 480L603 480L603 480L604 480L604 480L604 480L604 480L605 480L605 480L605 480L606 480L606 481L606 481L607 481L607 481L607 481L608 481L608 481L608 481L608 481L609 481L609 481L609 480L610 480L610 480L610 480L611 480L611 480L611 480L612 480L612 480L612 480L613 480L613 480L613 480L613 480L614 480L614 480L614 480L615 480L615 480L615 480L616 480L616 480L616 480L617 480L617 480L617 480L617 480L618 480L618 480L618 480L619 480L619 480L619 480L620 480L620 480L620 480L621 480L621 480L621 480L622 480L622 480L622 480L622 480L623 480L623 480L623 481L624 481L624 481L624 481L625 480L625 480L625 480L626 480L626 480L626 480L626 480L627 480L627 480L627 480L628 480L628 480L628 480L629 480L629 480L629 480L630 480L630 480L630 480L631 480L631 480L631 480L631 480L632 479L632 480L632 480L633 479L633 479L633 480L643 479L643 478L644 479L644 478L644 478L644 479L645 478L645 479L645 479L646 478L646 479L646 478L647 477L647 477L647 477L648 477L648 477L648 477L648 476L649 477L649 476L649 475L650 476L650 475L650 474L651 475L651 475L651 473L652 474L652 474L652 474L653 474L653 473L653 474L653 473L654 473L654 472L654 471L655 470L655 471L655 470L656 471L656 470L656 469L657 469L657 470L657 469L657 471L658 469L658 468L658 470L659 470L659 468L659 470L660 467L660 466L660 468L661 467L661 467L661 469L662 467L662 466L662 465L662 465L663 465L663 466L663 466L664 465L664 465L664 465L665 464L665 463L665 462L666 462L666 461L666 462L666 460L667 461L667 459L667 457L668 458L668 458L668 459L669 458L669 458L669 457L670 457L670 455L670 456L670 454L671 457L671 453L671 450L672 450L672 453L672 453L673 450L673 456L673 464L674 459L674 453L674 455L675 449L675 447L675 442L675 442L676 441L676 442L676 438L677 435L677 437L677 441L678 444L678 441L678 441L679 443L679 441L679 438L679 438L680 434L680 443L680 452L681 456L681 458L681 463L682 461L682 446L682 442L683 439L683 432L683 429L684 426L684 424L684 423L684 420L685 417L685 413L685 410L686 408L686 407L686 402L687 398L687 393L687 390L688 384L688 380L688 375L688 371L689 366L689 359L689 352L690 347L690 341L690 334L691 331L691 333L691 327L692 321L692 317L692 312L693 310L693 310L693 306L693 304L694 303L694 301L694 297L695 293L695 285L695 279L696 275L696 274L696 272L697 274L697 270L697 266L697 264L698 260L698 253L698 246L699 238L699 234L699 233L700 232L700 226L700 224L701 219L701 214L701 215L701 225L702 221L702 217L702 218L703 218L703 218L703 216L704 214" fill="none" stroke-width="1.5"></path></g><g class="key-South-Korea_0"><path stroke="#34983f" stroke-linecap="round" d="M643 490L658 490L671 489L671 488L672 488L672 488L672 487L673 487L673 487L673 486L674 486L674 487L674 487L675 487L675 487L675 487L675 487L676 487L676 486L676 486L677 487L677 487L677 487L678 487L678 486L678 486L679 486L679 485L679 484L679 484L680 485L680 484L683 484L684 485L684 485L684 482L684 482L685 481L685 481L685 481L686 481L686 480L686 481L687 480L687 480L687 480L688 479L688 478L688 477L688 476L689 475L689 472L689 471L690 469L690 468L690 464L691 462L691 461L691 457L692 454L692 451L692 449L693 451L693 449L693 446L693 441L694 438L694 434L694 428L695 422L695 414L695 410L696 403L696 395L696 390L697 384L697 375L697 365L697 356L698 349L698 358L698 344L699 332L699 326L699 315L700 310L700 302L700 295L701 286L701 276L701 271L701 271L702 258L702 251L702 246L703 240L703 234L703 228L704 221" fill="none" stroke-width="1.5"></path></g><g class="key-Argentina_0"><path stroke="#ca2628" stroke-linecap="round" d="M637 481L643 480L652 477L655 475L658 474L660 472L660 472L661 470L661 472L661 471L662 472L662 472L662 468L662 465L663 464L663 461L663 462L664 461L664 458L664 458L665 461L665 463L665 458L666 457L666 452L666 449L666 446L667 456L667 454L667 448L668 455L668 455L668 457L669 454L669 451L669 447L670 447L670 448L670 445L670 444L671 443L671 444L671 442L672 443L672 450L672 450L673 452L673 456L673 450L674 450L674 447L674 447L675 445L675 442L675 440L675 442L676 441L676 438L676 437L677 436L677 439L677 444L678 447L678 445L678 442L679 441L679 442L679 439L679 439L680 438L680 438L680 436L681 437L681 438L681 433L682 436L682 432L682 426L683 424L683 427L683 427L684 426L684 431L684 429L684 427L685 424L685 423L685 421L686 418L686 424L686 420L687 416L687 418L687 421L688 415L688 409L688 410L688 409L689 406L689 400L689 397L690 394L690 392L690 388L691 383L691 386L691 388L692 384L692 390L692 385L693 385L693 393L693 398L693 396L694 395L694 403L694 398L695 397L695 400L695 407L696 408L696 401L696 392L697 388L697 383L697 387L697 383L698 375L698 372L698 377L699 380L699 386L699 398L700 391L700 383L700 375L701 366L701 356L701 352L701 362L702 350L702 343L702 346L703 344L703 349L703 347L704 351" fill="none" stroke-width="1.5"></path></g></g></g></g><g class="SourcesFooter" style="fill:#777"><g class="clickable" style="fill:#777"><text font-size="12.60" x="15.0" y="539.6"><tspan x="15" y="539.58">Source: Maddison Project Database (2018)</tspan></text></g><text font-size="12.60" x="15.0" y="554.2"><tspan x="15" y="554.1800000000001">Note: These series are adjusted for price differences between countries based on only a single benchmark year, in 2011. This makes them</tspan><tspan x="15" y="568.0400000000001">suitable for studying the growth of incomes over time but not for comparing income levels between countries.</tspan></text><text font-size="12.60" x="15.0" y="582.5"><tspan x="15" y="582.48"><a target='_blank' style='fill: #777;' href='https://ourworldindata.org/economic-growth'>OurWorldInData.org/economic-growth</a> • <a style="fill: #777;" class="cclogo" href="http://creativecommons.org/licenses/by/4.0/deed.en_US" target="_blank">CC BY</a></tspan></text></g></svg>